<?xml version="1.0" encoding="utf-8"?>
<!-- Generator: Adobe Illustrator 16.0.4, SVG Export Plug-In . SVG Version: 6.00 Build 0)  -->
<!DOCTYPE svg PUBLIC "-//W3C//DTD SVG 1.1//EN" "http://www.w3.org/Graphics/SVG/1.1/DTD/svg11.dtd">
<svg version="1.1" id="Layer_1" xmlns="http://www.w3.org/2000/svg" xmlns:xlink="http://www.w3.org/1999/xlink" x="0px" y="0px"
	 width="20px" height="13.333px" viewBox="0 92.833 20 13.333" enable-background="new 0 92.833 20 13.333" xml:space="preserve">
<path fill="#FFFFFF" d="M6.12,96.832H4.992c0.123,0.061,0.195,0.207,0.195,0.363c0,0.145-0.044,0.346-0.128,0.575l-0.564,1.563
	l-1.021-2.501H2.557c0.257,0.195,0.38,0.592,0.19,1.027l-0.67,1.546l-1.011-2.574H0c0.173,0.117,0.296,0.385,0.452,0.753
	l1.044,2.613c0.139,0.352,0.296,0.536,0.631,0.692l1.083-2.44l0.743,1.748c0.151,0.347,0.307,0.536,0.642,0.692L6.12,96.832z
	 M8.537,100.137c-0.262,0.195-0.536,0.279-0.921,0.279c-0.207,0-0.391-0.017-0.525-0.05v-0.994H7.37
	c0.341,0,0.458,0.022,0.547,0.128v-0.586H7.091v-0.821c0,0,0.128-0.017,0.391-0.017c0.307,0,0.519,0.05,0.642,0.184v-0.608H6.136
	c0.156,0.083,0.184,0.212,0.184,0.742v1.698c0,0.531-0.022,0.659-0.184,0.743h2.172L8.537,100.137z M11.111,99.852
	c0-0.977-1.48-0.91-1.48-1.502c0-0.179,0.157-0.33,0.43-0.33c0.29,0,0.542,0.106,0.815,0.363v-0.692
	c-0.279-0.073-0.508-0.117-0.788-0.117c-0.608,0-1.229,0.363-1.229,0.966c0,1.094,1.48,0.938,1.48,1.552
	c0,0.218-0.196,0.379-0.531,0.379c-0.379,0-0.743-0.15-1.122-0.48l0.201,0.759c0.307,0.112,0.559,0.162,0.843,0.162
	C10.514,100.918,11.111,100.494,11.111,99.852z M13.937,97.652h-2.603l-0.178,0.603c0.195-0.134,0.373-0.185,0.691-0.185h0.312
	v2.021c0,0.531-0.021,0.659-0.189,0.743h1.139c-0.156-0.084-0.184-0.212-0.184-0.743v-2.016h0.273c0.285,0,0.48,0.044,0.58,0.184
	L13.937,97.652z M15.433,100.84c-0.156-0.084-0.185-0.212-0.185-0.742v-1.703c0-0.53,0.023-0.659,0.185-0.742h-1.139
	c0.156,0.083,0.185,0.212,0.185,0.742v1.698c0,0.531-0.023,0.659-0.185,0.743h1.139V100.84z M19.213,97.652h-1.045
	c0.207,0.111,0.229,0.34,0.229,0.692v1.29l-1.335-1.585c-0.133-0.162-0.223-0.285-0.312-0.402h-0.921
	c0.19,0.112,0.279,0.318,0.279,0.748v1.742c0,0.352-0.022,0.586-0.229,0.692h1.045c-0.207-0.112-0.229-0.34-0.229-0.692V98.83
	l1.38,1.63c0.195,0.229,0.446,0.33,0.91,0.403V98.35C18.984,97.993,19.012,97.764,19.213,97.652z M1.748,102.644v0.279
	c0,0.067,0.011,0.185-0.067,0.212v0.006h0.296c-0.078-0.027-0.067-0.145-0.067-0.212v-0.587c0-0.066-0.011-0.184,0.067-0.212v-0.005
	H1.681v0.005c0.078,0.028,0.067,0.146,0.067,0.212v0.19H1.189v-0.19c0-0.072-0.011-0.184,0.067-0.212v-0.005H0.96v0.005
	c0.078,0.028,0.067,0.146,0.067,0.212v0.587c0,0.067,0.011,0.185-0.067,0.212v0.006h0.296v-0.006
	c-0.078-0.027-0.067-0.145-0.067-0.212v-0.279h0.558V102.644z M2.987,102.097c-0.324-0.006-0.581,0.24-0.581,0.536
	c0,0.318,0.257,0.535,0.564,0.535s0.57-0.229,0.57-0.547C3.545,102.342,3.316,102.097,2.987,102.097z M2.981,102.209
	c0.246,0,0.391,0.217,0.391,0.445c0,0.229-0.151,0.402-0.385,0.402c-0.246,0-0.396-0.223-0.396-0.441
	C2.585,102.381,2.736,102.209,2.981,102.209z M4.311,102.236h0.14c0.05,0,0.111,0.006,0.134,0.062H4.59l0.05-0.185H4.634
	c-0.022,0.012-0.044,0.012-0.073,0.012h-0.62l-0.062-0.012H3.875l-0.056,0.185h0.005c0.05-0.045,0.117-0.062,0.184-0.062h0.134
	v0.692c0,0.067,0.011,0.185-0.067,0.212v0.006h0.307v-0.006c-0.083-0.051-0.078-0.105-0.078-0.195v-0.709H4.311z M5.276,102.644
	h0.117c0.05,0,0.112,0,0.14,0.045h0.006v-0.162H5.533c-0.017,0.011-0.044,0.011-0.067,0.011H5.282v-0.289
	c0.05-0.012,0.106-0.012,0.157-0.012c0.072,0,0.134,0.006,0.184,0.062h0.005v-0.179H5.623c-0.022,0.011-0.044,0.006-0.073,0.006
	H5.053v0.005c0.078,0.028,0.067,0.146,0.067,0.212v0.587c0,0.067,0.011,0.185-0.067,0.212v0.006h0.642l0.067-0.201H5.756
	c-0.078,0.066-0.184,0.101-0.285,0.09l-0.195-0.018V102.644z M6.416,103.018v-0.676c0-0.072-0.011-0.184,0.067-0.212v-0.005H6.187
	v0.005c0.078,0.028,0.067,0.146,0.067,0.212v0.587c0,0.067,0.011,0.185-0.067,0.212v0.006h0.637l0.078-0.207H6.896
	c-0.078,0.067-0.167,0.101-0.273,0.096L6.416,103.018z M7.917,102.13c-0.073-0.022-0.151-0.033-0.229-0.033
	c-0.19,0-0.391,0.072-0.391,0.269c0,0.328,0.536,0.284,0.536,0.524c0,0.106-0.134,0.161-0.223,0.161
	c-0.123,0-0.246-0.05-0.341-0.128l0.045,0.195c0.089,0.034,0.184,0.045,0.279,0.045c0.24,0,0.413-0.156,0.413-0.318
	c0-0.284-0.536-0.284-0.536-0.497c0-0.105,0.112-0.139,0.201-0.139s0.184,0.033,0.246,0.1V102.13z M10.223,103.141
	c-0.29-0.14-0.519-0.379-0.753-0.604c0.072-0.061,0.134-0.128,0.134-0.229c0-0.129-0.101-0.212-0.223-0.212
	c-0.123,0-0.24,0.089-0.24,0.218c0,0.09,0.067,0.162,0.123,0.218c-0.112,0.089-0.212,0.179-0.212,0.335
	c0,0.189,0.173,0.296,0.352,0.296c0.151,0,0.246-0.056,0.324-0.185c0.05,0.045,0.128,0.106,0.184,0.135
	c0.044,0.021,0.089,0.021,0.145,0.021h0.167V103.141z M9.386,102.448c-0.039-0.039-0.106-0.101-0.106-0.161
	c0-0.062,0.044-0.09,0.101-0.09c0.056,0,0.106,0.033,0.106,0.095C9.486,102.359,9.436,102.415,9.386,102.448z M9.665,102.929
	c-0.056,0.072-0.134,0.134-0.229,0.134c-0.117,0-0.218-0.078-0.218-0.201c0-0.095,0.062-0.173,0.14-0.229L9.665,102.929z
	 M11.117,102.125c0.078,0.033,0.066,0.145,0.066,0.217v0.587c0,0.067,0.012,0.185-0.066,0.212v0.006h0.295v-0.006
	c-0.078-0.027-0.072-0.14-0.072-0.212v-0.698c0.033-0.006,0.072-0.012,0.106-0.012c0.106-0.005,0.2,0.062,0.2,0.174
	c0,0.145-0.145,0.201-0.268,0.223l0.146,0.219l0.189,0.234c0.045,0.056,0.101,0.078,0.179,0.078h0.146
	c-0.089-0.057-0.185-0.135-0.251-0.218l-0.224-0.279c0.128-0.028,0.245-0.134,0.245-0.273s-0.111-0.251-0.318-0.251H11.117z
	 M12.635,102.644h0.117c0.051,0,0.112,0,0.141,0.045h0.006v-0.162h-0.006c-0.018,0.011-0.045,0.011-0.067,0.011h-0.185v-0.289
	c0.051-0.012,0.106-0.012,0.156-0.012c0.073,0,0.135,0.006,0.185,0.062h0.006v-0.179h-0.006c-0.022,0.011-0.044,0.006-0.072,0.006
	h-0.497v0.005c0.078,0.028,0.072,0.146,0.072,0.212v0.587c0,0.067,0.012,0.185-0.072,0.212v0.006h0.647l0.067-0.201h-0.006
	c-0.078,0.066-0.184,0.101-0.285,0.09l-0.195-0.018v-0.374H12.635z M14.171,102.13c-0.073-0.022-0.151-0.033-0.229-0.033
	c-0.189,0-0.391,0.072-0.391,0.269c0,0.328,0.536,0.284,0.536,0.524c0,0.106-0.134,0.161-0.224,0.161
	c-0.123,0-0.245-0.05-0.34-0.128l0.045,0.195c0.089,0.034,0.184,0.045,0.279,0.045c0.239,0,0.412-0.156,0.412-0.318
	c0-0.284-0.535-0.284-0.535-0.497c0-0.105,0.111-0.139,0.201-0.139c0.089,0,0.184,0.033,0.245,0.1V102.13L14.171,102.13z
	 M15.26,102.097c-0.324-0.006-0.581,0.24-0.581,0.536c0,0.318,0.257,0.535,0.563,0.535c0.308,0,0.57-0.229,0.57-0.547
	C15.818,102.342,15.589,102.097,15.26,102.097z M15.248,102.209c0.246,0,0.391,0.217,0.391,0.445c0,0.229-0.15,0.402-0.385,0.402
	c-0.246,0-0.396-0.223-0.396-0.441C14.857,102.381,15.008,102.209,15.248,102.209z M16.242,102.125
	c0.078,0.033,0.067,0.145,0.067,0.217v0.587c0,0.067,0.011,0.185-0.067,0.212v0.006h0.296v-0.006
	c-0.078-0.027-0.072-0.14-0.072-0.212v-0.698c0.033-0.006,0.072-0.012,0.106-0.012c0.105-0.005,0.201,0.062,0.201,0.174
	c0,0.145-0.146,0.201-0.269,0.223l0.146,0.219l0.189,0.234c0.045,0.056,0.101,0.078,0.179,0.078h0.146
	c-0.09-0.057-0.185-0.135-0.252-0.218l-0.223-0.279c0.128-0.028,0.245-0.134,0.245-0.273s-0.111-0.251-0.318-0.251H16.242z
	 M17.855,102.236h0.141c0.05,0,0.111,0.006,0.133,0.062h0.006l0.051-0.185H18.18c-0.022,0.012-0.045,0.012-0.072,0.012h-0.614
	l-0.062-0.012h-0.006l-0.056,0.185h0.006c0.05-0.045,0.117-0.062,0.185-0.062h0.133v0.692c0,0.067,0.012,0.185-0.066,0.212v0.006
	h0.307v-0.006c-0.083-0.051-0.078-0.105-0.078-0.195V102.236z M19.135,102.13c-0.072-0.022-0.15-0.033-0.229-0.033
	c-0.19,0-0.392,0.072-0.392,0.269c0,0.328,0.536,0.284,0.536,0.524c0,0.106-0.134,0.161-0.223,0.161
	c-0.123,0-0.246-0.05-0.342-0.128l0.045,0.195c0.09,0.034,0.185,0.045,0.279,0.045c0.24,0,0.414-0.156,0.414-0.318
	c0-0.284-0.537-0.284-0.537-0.497c0-0.105,0.112-0.139,0.201-0.139c0.09,0,0.185,0.033,0.246,0.1V102.13z M19.386,98.082
	c0-0.162,0.123-0.279,0.273-0.279c0.151,0,0.274,0.123,0.274,0.279c0,0.162-0.123,0.285-0.274,0.285
	C19.503,98.367,19.386,98.25,19.386,98.082z M19.659,98.423c0.185,0,0.341-0.146,0.341-0.341s-0.156-0.335-0.341-0.335
	s-0.341,0.145-0.341,0.335C19.318,98.277,19.475,98.423,19.659,98.423z M19.587,98.11h0.067l0.1,0.167h0.067l-0.112-0.173
	c0.057-0.006,0.102-0.039,0.102-0.106c0-0.079-0.045-0.112-0.141-0.112h-0.15v0.391h0.062V98.11H19.587z M19.587,98.06v-0.123h0.078
	c0.039,0,0.083,0.011,0.083,0.056c0,0.062-0.044,0.062-0.094,0.062h-0.067V98.06z"/>
</svg>
